<svg xmlns="http://www.w3.org/2000/svg" xmlns:xlink="http://www.w3.org/1999/xlink" width="128" height="128" viewBox="0 0 128 128"><defs><clipPath id="b"><rect width="128" height="128"/></clipPath></defs><g id="a" clip-path="url(#b)"><g transform="translate(-17 -6)" fill="none"><path d="M95.408,18.039a15,15,0,0,1,23.479,13.574l-.58,7.019a15,15,0,0,0,8.553,14.8l6.356,3a15,15,0,0,1,0,27.136l-6.356,3a15,15,0,0,0-8.553,14.8l.58,7.019a15,15,0,0,1-23.479,13.574L89.53,117.9a15,15,0,0,0-17.06,0l-5.878,4.064a15,15,0,0,1-23.479-13.574l.58-7.019a15,15,0,0,0-8.553-14.8l-6.356-3a15,15,0,0,1,0-27.136l6.356-3a15,15,0,0,0,8.553-14.8l-.58-7.019A15,15,0,0,1,66.592,18.039L72.47,22.1a15,15,0,0,0,17.06,0Z" stroke="none"/><path d="M 103.8888854980469 20.34365844726562 C 101.8834457397461 20.34365844726562 99.98667907714844 20.95201873779297 98.25128173828125 22.15180969238281 L 92.37361145019531 26.21537017822266 C 89.01544189453125 28.53705596923828 85.08250427246094 29.76422119140625 80.99998474121094 29.76422119140625 C 76.91746520996094 29.76422119140625 72.98452758789062 28.53705596923828 69.6263427734375 26.21537017822266 L 63.74871826171875 22.15182495117188 C 62.01304626464844 20.95185089111328 60.11642456054688 20.34351348876953 58.111572265625 20.34368133544922 C 56.73554992675781 20.34380340576172 55.32630157470703 20.64730834960938 54.03617095947266 21.22136688232422 C 52.75163269042969 21.79293060302734 51.57463073730469 22.63599395751953 50.63238525390625 23.65943145751953 C 49.72942352294922 24.64018249511719 49.05056762695312 25.76205444335938 48.61465454101562 26.99385070800781 C 48.14856719970703 28.31097412109375 47.97402954101562 29.72649383544922 48.09590148925781 31.20114135742188 L 48.67604827880859 38.22024536132812 C 49.35946655273438 46.48876190185547 44.77638244628906 54.42099761962891 37.27169799804688 57.95853424072266 L 30.915771484375 60.95459747314453 C 29.06375122070312 61.82762145996094 27.61540222167969 63.11376190185547 26.61094665527344 64.77730560302734 C 25.67454528808594 66.32814025878906 25.17961120605469 68.13414001464844 25.17961120605469 70.00003814697266 C 25.17961120605469 71.86595153808594 25.67457580566406 73.67192840576172 26.61094665527344 75.22274780273438 C 27.61540222167969 76.88630676269531 29.06375122070312 78.17245483398438 30.915771484375 79.04545593261719 L 37.27169799804688 82.04151916503906 C 44.77640533447266 85.57907867431641 49.35946655273438 93.51129150390625 48.67604827880859 101.77978515625 L 48.09590148925781 108.7989349365234 C 47.97398376464844 110.2739562988281 48.14855194091797 111.6898040771484 48.61471557617188 113.0071563720703 C 49.05065155029297 114.2390975952148 49.72956848144531 115.3610153198242 50.632568359375 116.3417434692383 C 51.57471466064453 117.3649520874023 52.75154876708984 118.2078094482422 54.03588104248047 118.7791595458984 C 55.32588195800781 119.3530349731445 56.73506927490234 119.6563720703125 58.11111450195312 119.6563720703125 C 60.11654663085938 119.6563720703125 62.01332092285156 119.0480194091797 63.74873352050781 117.8482208251953 L 69.62638092041016 113.7846832275391 C 72.98452758789062 111.4630126953125 76.91746520996094 110.2358474731445 81.00000762939453 110.2358474731445 C 85.08255004882812 110.2358474731445 89.01546478271484 111.4630126953125 92.37363433837891 113.7846832275391 L 98.25128173828125 117.8482437133789 C 99.9866943359375 119.0480346679688 101.8834457397461 119.6563873291016 103.8888854980469 119.6563873291016 C 105.2646331787109 119.6563873291016 106.6736526489258 119.3530349731445 107.9635925292969 118.7791213989258 C 109.2479705810547 118.2077026367188 110.4249038696289 117.3647613525391 111.3671340942383 116.3414306640625 C 112.2702331542969 115.360595703125 112.94921875 114.2386169433594 113.3852157592773 113.0066604614258 C 113.8514022827148 111.6893920898438 114.0259857177734 110.2737045288086 113.9040908813477 108.7989349365234 L 113.3239440917969 101.77978515625 C 112.6405334472656 93.51129150390625 117.2235870361328 85.57907867431641 124.7282791137695 82.04151916503906 L 131.084228515625 79.04543304443359 C 132.9362640380859 78.17243194580078 134.3846130371094 76.88629150390625 135.3890686035156 75.22272491455078 C 136.325439453125 73.67189025878906 136.8204040527344 71.86591339111328 136.8204040527344 70.00001525878906 C 136.8204040527344 68.13411712646484 136.325439453125 66.32811737060547 135.3890686035156 64.77728271484375 C 134.3846130371094 63.11374664306641 132.9362640380859 61.82757568359375 131.084228515625 60.95457458496094 L 124.7283172607422 57.95853424072266 C 117.2235870361328 54.42095184326172 112.6405334472656 46.48874664306641 113.3239440917969 38.22024536132812 L 113.9040908813477 31.20109558105469 C 114.026008605957 29.72607421875 113.8514404296875 28.31022644042969 113.3852767944336 26.99286651611328 C 112.9493408203125 25.76093292236328 112.2704238891602 24.63901519775391 111.3674240112305 23.65828704833984 C 110.4253005981445 22.63507843017578 109.2484436035156 21.79222106933594 107.964111328125 21.22087097167969 C 106.6741104125977 20.64699554443359 105.2649230957031 20.34365844726562 103.8888854980469 20.34365844726562 M 103.8888931274414 15.34365081787109 C 112.0988235473633 15.34365081787109 119.6611022949219 22.24829864501953 118.887092590332 31.61295318603516 L 118.3069458007812 38.63209533691406 C 117.7915649414062 44.86759948730469 121.2007141113281 50.76803588867188 126.860237121582 53.43582916259766 L 133.2161560058594 56.43186950683594 C 144.6884613037109 61.83970642089844 144.6884918212891 78.16030883789062 133.2161560058594 83.56814575195312 L 126.8602142333984 86.56422424316406 C 121.2007141113281 89.23199462890625 117.7915649414062 95.13243103027344 118.3069458007812 101.3679351806641 L 118.887092590332 108.387077331543 C 119.930419921875 121.0098876953125 105.8262939453125 129.1638793945312 95.40785980224609 121.9610366821289 L 89.53021240234375 117.8974761962891 C 84.39707946777344 114.3486404418945 77.60294342041016 114.3486404418945 72.46977996826172 117.8974761962891 L 66.59213256835938 121.9610137939453 C 56.17372131347656 129.1638946533203 42.06958770751953 121.009880065918 43.11289978027344 108.387077331543 L 43.69304656982422 101.3679351806641 C 44.20842742919922 95.13243103027344 40.79927825927734 89.23199462890625 35.13977813720703 86.56422424316406 L 28.78385925292969 83.56816101074219 C 17.3115234375 78.16034698486328 17.3115234375 61.8397216796875 28.78385925292969 56.43189239501953 L 35.13975524902344 53.43582916259766 C 40.79927825927734 50.76805877685547 44.20842742919922 44.86759948730469 43.69304656982422 38.63209533691406 L 43.11289978027344 31.61299133300781 C 42.06957244873047 18.99015808105469 56.17372894287109 10.83619689941406 66.59213256835938 18.03903961181641 L 72.46975708007812 22.10257720947266 C 77.60292053222656 25.65142822265625 84.39704895019531 25.65142822265625 89.53021240234375 22.10257720947266 L 95.40785980224609 18.03901672363281 C 98.09703063964844 16.17983245849609 101.032470703125 15.34365081787109 103.8888931274414 15.34365081787109 Z" stroke="none" fill="#7c68ff"/></g><text transform="translate(43 90)" fill="#7c68ff" font-size="72" font-family="JetBrainsMono-ExtraBold, JetBrains Mono" font-weight="800"><tspan x="0" y="0">A</tspan></text></g></svg>